<?xml version="1.0" standalone="no"?>
<!DOCTYPE svg PUBLIC "-//W3C//DTD SVG 20010904//EN"
 "http://www.w3.org/TR/2001/REC-SVG-20010904/DTD/svg10.dtd">
<svg version="1.0" xmlns="http://www.w3.org/2000/svg"
 width="223.000000pt" height="226.000000pt" viewBox="0 0 223.000000 226.000000"
 preserveAspectRatio="xMidYMid meet">

<g transform="translate(0.000000,226.000000) scale(0.100000,-0.100000)"
fill="#000000" stroke="none">
<path d="M0 2177 c0 -91 12 -120 54 -131 66 -16 176 89 176 169 0 21 5 25 28
25 22 0 40 -12 75 -50 40 -45 49 -50 74 -44 40 10 95 39 131 69 l30 25 549 0
549 0 23 -31 c13 -17 50 -44 83 -59 49 -23 65 -27 86 -19 32 12 39 22 52 72
l11 37 154 0 c97 0 155 4 155 10 0 7 -378 10 -1115 10 l-1115 0 0 -83z m160
47 c0 -9 5 -12 12 -8 6 4 8 3 5 -3 -4 -6 -16 -13 -27 -16 -18 -4 -19 -3 -9 9
16 19 4 30 -16 14 -12 -10 -18 -11 -28 -1 -9 10 -8 11 6 6 10 -4 17 -2 17 4 0
6 9 11 20 11 11 0 20 -7 20 -16z"/>
<path d="M647 2203 c-4 -3 -7 -13 -7 -22 1 -13 3 -13 11 2 11 19 8 33 -4 20z"/>
<path d="M2086 2118 c-17 -26 -35 -99 -36 -141 0 -17 6 -30 18 -34 9 -4 28
-15 41 -25 32 -25 54 -23 90 8 29 25 31 29 31 100 0 46 -4 74 -11 74 -6 0 -8
9 -4 21 6 18 5 19 -14 7 -17 -10 -25 -10 -41 0 -30 18 -58 15 -74 -10z"/>
<path d="M327 2109 c6 -22 23 -26 23 -5 0 8 -6 16 -14 19 -10 4 -12 0 -9 -14z"/>
<path d="M1796 2054 c-8 -21 -8 -24 4 -24 5 0 14 9 20 20 8 16 8 20 -4 20 -7
0 -17 -7 -20 -16z"/>
<path d="M230 2027 c-33 -17 -36 -49 -8 -81 31 -37 94 -46 128 -18 21 17 23
23 13 45 -22 49 -90 76 -133 54z m43 -14 c-21 -8 -15 -26 7 -20 13 3 20 0 20
-9 0 -17 12 -18 29 -1 9 8 12 8 7 0 -3 -6 0 -18 8 -25 12 -13 11 -16 -5 -26
-45 -28 -114 3 -114 51 -1 14 2 24 5 22 3 -2 12 0 20 6 8 5 20 8 25 8 6 0 4
-3 -2 -6z"/>
<path d="M270 1955 c7 -8 16 -15 21 -15 5 0 6 7 3 15 -4 8 -13 15 -21 15 -13
0 -13 -3 -3 -15z"/>
<path d="M310 1950 c0 -5 5 -10 10 -10 6 0 10 5 10 10 0 6 -4 10 -10 10 -5 0
-10 -4 -10 -10z"/>
<path d="M1001 1967 c2 -1 15 -11 29 -22 l25 -20 -19 23 c-11 12 -24 22 -29
22 -6 0 -8 -1 -6 -3z"/>
<path d="M771 1940 c-1 -18 -4 -21 -10 -12 -4 8 -19 12 -32 10 l-24 -4 28 -12
c15 -6 27 -17 27 -24 0 -16 -50 -68 -66 -68 -6 0 -14 -7 -18 -15 -3 -8 -13
-15 -23 -15 -9 0 -28 -11 -42 -24 -21 -19 -28 -22 -37 -12 -9 10 -1 23 35 59
25 25 60 58 76 71 17 14 25 26 18 26 -22 0 -152 -121 -190 -177 -16 -24 -12
-53 7 -53 6 0 8 5 5 10 -4 7 3 8 21 4 15 -4 25 -3 21 2 -3 5 5 10 17 10 36 2
157 63 150 76 -4 7 -3 8 4 4 20 -12 69 33 70 65 0 16 -4 27 -9 24 -5 -4 -9 -2
-9 3 0 5 10 14 23 21 21 11 21 11 -5 6 -23 -4 -27 -1 -31 22 -4 27 -4 27 -6 3z"/>
<path d="M1223 1922 c-21 -3 -28 -13 -24 -35 1 -5 -3 -6 -9 -2 -5 3 -18 1 -27
-4 -13 -8 -14 -10 -4 -11 8 0 23 -8 34 -17 13 -11 17 -12 12 -4 -6 11 -4 13 9
8 10 -4 20 -7 22 -7 3 0 2 -4 -1 -10 -4 -6 5 -10 21 -10 15 0 51 -13 81 -30
60 -34 103 -38 126 -12 31 34 17 75 -33 102 -23 13 -178 36 -207 32z"/>
<path d="M2108 1829 c-22 -12 -23 -29 -3 -29 8 0 23 -8 34 -19 18 -18 19 -18
17 4 -1 15 -6 21 -15 17 -9 -3 -12 -1 -7 6 4 7 14 12 22 12 8 0 14 5 14 10 0
13 -40 12 -62 -1z"/>
<path d="M1671 1808 c-1 -12 -9 -18 -26 -18 -54 0 -92 -70 -65 -121 23 -41 98
-61 143 -37 71 37 60 134 -17 154 -14 3 -27 13 -29 22 -4 15 -5 15 -6 0z m19
-32 c0 -3 -4 -8 -10 -11 -5 -3 -10 -1 -10 4 0 6 5 11 10 11 6 0 10 -2 10 -4z
m-33 -12 c-3 -3 -12 -4 -19 -1 -8 3 -5 6 6 6 11 1 17 -2 13 -5z m83 -36 c0 -6
-6 -5 -15 2 -8 7 -15 14 -15 16 0 2 7 1 15 -2 8 -4 15 -11 15 -16z"/>
<path d="M2137 1662 c-54 -33 -50 -97 7 -127 22 -11 41 -26 44 -33 2 -7 8 -12
13 -12 6 0 8 4 5 9 -3 5 1 14 9 21 11 9 15 32 15 80 0 62 -2 68 -22 74 -31 8
-39 7 -71 -12z"/>
<path d="M2055 1650 c3 -5 10 -10 16 -10 5 0 9 5 9 10 0 6 -7 10 -16 10 -8 0
-12 -4 -9 -10z"/>
<path d="M401 1603 c-1 -12 -6 -25 -11 -28 -6 -3 -7 -17 -4 -31 6 -24 -11 -35
-19 -11 -2 6 -3 0 -1 -15 4 -35 -35 -81 -57 -67 -11 7 -11 9 -1 9 25 0 44 28
33 47 -6 11 -11 13 -11 5 0 -7 -4 -10 -10 -7 -5 3 -7 0 -4 -9 4 -11 -6 -17
-38 -24 -43 -9 -43 -9 -14 -17 l29 -8 -29 -13 -29 -12 41 -1 c30 -1 52 7 82
28 49 36 66 81 53 137 -5 22 -9 30 -10 17z"/>
<path d="M1830 1575 c0 -8 2 -15 4 -15 2 0 6 7 10 15 3 8 1 15 -4 15 -6 0 -10
-7 -10 -15z"/>
<path d="M175 1481 c29 -44 45 -53 66 -41 11 7 10 10 -5 16 -14 5 -15 9 -4 15
7 5 23 9 36 9 12 0 22 4 22 8 0 5 -21 7 -47 6 -30 -2 -57 3 -71 12 -22 15 -22
14 3 -25z"/>
<path d="M62 1480 c-6 -11 -17 -17 -24 -15 -29 11 -39 -11 -36 -81 l3 -69 36
-9 c63 -16 112 8 125 61 11 43 -7 76 -52 93 -24 9 -39 20 -37 28 7 18 -1 15
-15 -8z m23 -30 c-3 -5 -18 -10 -33 -9 l-27 1 25 8 c35 11 42 11 35 0z"/>
<path d="M520 1489 c-64 -19 -99 -74 -77 -119 21 -41 38 -37 32 7 -3 23 -1 44
7 54 50 61 168 47 168 -20 0 -33 -23 -56 -67 -66 -40 -8 -42 3 -13 60 22 44
21 51 -9 36 -14 -8 -28 -38 -46 -99 -15 -48 -31 -100 -36 -116 -10 -32 -7 -41
14 -33 7 3 22 33 32 66 22 75 43 78 63 11 29 -101 52 -130 88 -116 13 5 11 11
-14 34 -21 19 -31 41 -36 74 -4 26 -12 51 -18 54 -6 4 3 14 23 23 64 31 77
102 24 137 -31 20 -90 26 -135 13z"/>
<path d="M1334 1445 c-7 -19 -14 -39 -14 -44 0 -6 -10 -16 -22 -22 -14 -8 -18
-14 -10 -17 17 -5 15 -40 -7 -87 -19 -43 -47 -72 -58 -61 -4 4 1 35 10 70 21
78 21 86 3 86 -9 0 -19 -20 -27 -50 -23 -89 -109 -145 -139 -90 -15 28 -5 40
33 40 48 0 79 25 75 62 -4 38 -30 50 -78 34 -27 -8 -41 -23 -62 -61 -32 -60
-70 -95 -103 -95 -50 0 -57 76 -10 120 28 26 56 21 48 -9 -6 -23 6 -28 25 -9
19 19 14 48 -11 59 -43 19 -90 -10 -127 -79 -30 -57 -60 -82 -98 -82 -23 0
-42 19 -42 42 0 14 8 18 40 18 74 0 107 69 47 98 -24 12 -32 11 -60 -5 -71
-41 -85 -142 -24 -171 34 -16 89 -1 112 31 l14 21 21 -27 c29 -37 86 -37 125
-1 27 25 36 23 47 -8 2 -5 17 -12 35 -17 25 -7 40 -5 67 8 28 15 36 16 40 5 8
-21 50 -17 71 6 22 24 35 26 35 5 0 -28 42 -35 79 -12 31 18 34 19 43 4 13
-24 61 -21 84 4 l18 20 8 -20 c17 -48 71 -14 114 72 42 83 45 84 65 32 11 -29
15 -55 10 -73 -9 -33 -37 -41 -46 -13 -3 12 -11 21 -16 21 -18 0 -5 -42 17
-56 17 -12 25 -11 57 5 20 10 48 22 62 25 24 6 66 66 46 66 -5 0 -12 -8 -15
-18 -7 -20 -43 -45 -55 -37 -5 2 -11 17 -14 32 -15 73 -33 123 -43 123 -16 0
-49 -40 -74 -90 -24 -49 -58 -90 -73 -90 -10 0 -4 70 9 103 4 11 1 17 -8 17
-8 0 -24 -22 -37 -49 -25 -56 -44 -76 -66 -67 -44 17 19 136 72 136 14 0 33
-5 43 -10 23 -12 35 3 16 19 -22 19 -70 20 -105 3 -21 -9 -44 -35 -62 -67 -35
-63 -63 -89 -84 -82 -18 7 -19 46 -4 100 9 32 14 37 39 37 20 0 30 5 30 15 0
9 -9 15 -25 15 -27 0 -29 3 -16 28 4 9 11 29 15 45 10 41 -22 35 -40 -8z
m-529 -106 c10 -16 -25 -49 -52 -49 -27 0 -29 8 -7 38 16 23 48 29 59 11z
m340 1 c12 -20 -15 -50 -45 -50 -36 0 -37 6 -8 37 23 24 43 29 53 13z"/>
<path d="M1234 1419 c-3 -6 -2 -15 4 -21 13 -13 32 -2 32 18 0 16 -26 19 -36
3z"/>
<path d="M381 1380 c-13 -11 -22 -20 -20 -21 31 -6 38 -6 33 2 -3 6 0 16 6 24
17 20 10 18 -19 -5z"/>
<path d="M5 1208 c-3 -8 -5 -53 -3 -99 l3 -84 38 -3 c48 -4 73 16 88 70 5 22
17 42 25 45 19 7 18 23 -3 23 -9 0 -29 11 -43 25 -32 31 -97 45 -105 23z"/>
<path d="M1833 1088 c-44 -21 -37 -70 16 -107 33 -24 98 -41 88 -23 -5 6 0 8
13 5 11 -3 20 -1 20 5 0 13 -27 23 -45 16 -11 -5 -13 -2 -9 10 5 14 2 15 -21
6 -23 -9 -26 -8 -17 3 7 8 8 17 4 22 -4 4 3 5 16 2 18 -4 22 -2 20 11 -2 9
-12 18 -22 20 -11 3 -16 0 -12 -7 4 -6 0 -14 -8 -17 -9 -3 -14 -9 -12 -13 3
-4 -4 -7 -15 -7 -14 0 -17 5 -13 18 3 10 1 18 -5 18 -6 0 -8 6 -5 14 14 36
111 19 133 -22 15 -29 14 -37 -4 -22 -22 18 -19 -4 3 -23 24 -22 32 -21 32 3
0 32 -31 71 -67 86 -38 16 -60 17 -90 2z"/>
<path d="M1840 1060 c0 -5 7 -10 16 -10 8 0 12 5 9 10 -3 6 -10 10 -16 10 -5
0 -9 -4 -9 -10z"/>
<path d="M1125 950 c-3 -5 -34 -10 -68 -10 -75 0 -107 -18 -107 -60 0 -34 30
-55 66 -46 32 8 31 24 -3 28 -29 3 -37 16 -24 37 9 13 131 23 131 10 0 -3 -7
-28 -15 -57 -13 -43 -20 -51 -43 -55 -26 -4 -26 -4 -4 -12 26 -9 28 -25 6 -71
-12 -24 -23 -34 -39 -34 -27 0 -35 16 -28 53 6 32 -11 36 -27 8 -34 -64 36
-119 97 -76 12 8 29 38 38 65 12 37 22 50 36 50 10 0 19 5 19 10 0 6 -7 10
-15 10 -19 0 -19 16 -2 66 28 80 29 94 8 94 -11 0 -23 -4 -26 -10z"/>
<path d="M1322 933 c-5 -10 -15 -35 -21 -55 -8 -22 -19 -38 -28 -38 -12 0 -13
-3 -4 -14 17 -20 -2 -87 -34 -123 -36 -43 -47 -20 -24 52 22 72 23 85 5 85
-15 0 -60 -138 -54 -167 5 -29 45 -28 73 3 26 28 26 28 32 6 7 -30 47 -39 78
-18 25 16 61 74 52 83 -3 2 -10 -4 -16 -15 -17 -32 -41 -52 -62 -52 -16 0 -19
7 -18 43 2 69 11 92 42 95 31 4 37 22 7 22 -24 0 -24 5 -6 58 8 22 12 43 9 46
-11 11 -22 6 -31 -11z"/>
<path d="M1217 894 c-14 -14 -7 -35 11 -32 9 2 17 10 17 17 0 16 -18 25 -28
15z"/>
<path d="M1764 777 c-8 -9 -7 -16 3 -25 7 -7 13 -18 13 -25 0 -7 -7 -4 -14 6
-9 12 -16 14 -21 8 -3 -6 -11 -11 -17 -11 -6 0 -5 7 3 17 9 11 10 14 2 10 -7
-5 -21 -27 -31 -51 -12 -26 -36 -55 -60 -72 -66 -47 -83 -110 -37 -140 53 -35
104 4 162 124 31 64 34 79 28 122 -7 52 -12 58 -31 37z"/>
<path d="M466 669 c-7 -24 -11 -26 -46 -22 -21 3 -50 3 -64 -1 -66 -16 -114
-201 -66 -256 40 -46 162 -34 220 22 35 33 45 65 35 115 -6 33 -5 35 10 23 13
-11 18 -11 28 0 10 10 9 12 -4 7 -9 -3 -22 0 -28 6 -8 8 -5 14 11 24 21 12 20
12 -11 6 l-33 -6 17 27 c23 35 11 45 -20 16 l-24 -23 -5 24 c-3 13 -7 33 -9
44 -3 17 -5 16 -11 -6z m23 -156 c0 -5 -4 -17 -9 -28 -8 -19 -9 -19 -9 2 -1
17 -5 21 -18 16 -11 -4 -14 -3 -9 5 8 13 46 17 45 5z"/>
<path d="M2164 608 c-5 -13 -7 -26 -6 -30 1 -5 -1 -7 -5 -7 -20 3 -34 -2 -28
-11 3 -5 17 -10 31 -10 16 0 28 -8 36 -25 20 -44 39 -31 36 23 -3 39 -6 47
-23 47 -13 0 -19 7 -19 18 2 25 -13 21 -22 -5z"/>
<path d="M2125 611 c-6 -11 13 -26 22 -17 4 3 1 6 -6 6 -7 0 -9 5 -6 10 3 6 4
10 1 10 -3 0 -7 -4 -11 -9z"/>
<path d="M12 588 c-8 -8 -12 -49 -12 -119 0 -104 1 -108 26 -128 32 -25 61
-27 92 -5 37 26 102 114 102 138 0 13 -17 37 -40 58 -36 33 -38 38 -24 52 20
21 6 21 -17 0 -16 -15 -20 -15 -50 0 -38 19 -61 20 -77 4z m118 -48 c0 -5 -4
-10 -10 -10 -5 0 -10 5 -10 10 0 6 5 10 10 10 6 0 10 -4 10 -10z"/>
<path d="M685 580 c-3 -5 -1 -10 4 -10 6 0 11 5 11 10 0 6 -2 10 -4 10 -3 0
-8 -4 -11 -10z"/>
<path d="M2107 538 c-4 -12 25 -59 60 -98 8 -8 23 -26 33 -39 11 -13 23 -21
27 -17 4 4 3 10 -2 14 -6 4 -22 23 -37 42 -14 19 -35 44 -45 55 -11 11 -18 26
-16 32 6 16 -14 26 -20 11z"/>
<path d="M1414 485 c-3 -8 -4 -20 -1 -27 3 -7 6 -3 6 9 1 12 7 24 14 26 9 4 9
6 -1 6 -7 1 -15 -6 -18 -14z"/>
<path d="M1451 437 c-13 -21 -12 -21 5 -5 10 10 16 20 13 22 -3 3 -11 -5 -18
-17z"/>
<path d="M1698 444 c-58 -31 -78 -121 -34 -149 22 -15 28 -15 53 -2 41 21 60
47 68 89 6 29 3 40 -14 57 -25 25 -36 25 -73 5z m45 -18 c3 3 3 -3 0 -15 -7
-28 5 -27 17 2 8 19 9 17 9 -15 1 -49 -7 -66 -38 -83 -42 -21 -66 -13 -67 21
-1 16 3 36 8 44 6 11 7 8 3 -7 -4 -14 -2 -23 4 -23 6 0 11 9 11 20 0 11 7 20
15 20 12 0 14 7 9 28 -6 23 -5 25 8 15 8 -7 17 -10 21 -7z"/>
<path d="M1720 370 c-8 -5 -12 -12 -9 -15 8 -8 39 5 39 16 0 11 -11 11 -30 -1z"/>
<path d="M1675 320 c-3 -6 1 -7 9 -4 18 7 21 14 7 14 -6 0 -13 -4 -16 -10z"/>
<path d="M1300 442 c0 -4 9 -8 20 -9 11 -1 18 2 15 8 -7 11 -35 12 -35 1z"/>
<path d="M1516 434 c-3 -9 -6 -25 -5 -37 1 -20 1 -20 8 2 10 36 27 36 47 2 10
-16 21 -28 26 -25 4 3 8 -7 7 -23 0 -15 -3 -22 -6 -15 -2 6 -9 12 -14 12 -6 0
-7 -4 -4 -10 11 -18 -11 -10 -30 10 -10 11 -20 18 -23 15 -10 -10 31 -45 53
-45 50 0 60 51 19 99 -28 34 -68 41 -78 15z"/>
<path d="M1400 430 c0 -5 5 -10 11 -10 5 0 7 5 4 10 -3 6 -8 10 -11 10 -2 0
-4 -4 -4 -10z"/>
<path d="M816 394 c-4 -11 -3 -20 5 -23 6 -2 -2 -9 -19 -17 -36 -15 -41 -36
-29 -139 8 -81 32 -163 54 -187 19 -21 102 -25 121 -6 22 22 14 92 -14 134
-38 56 -54 98 -54 143 0 28 -6 44 -20 54 -10 7 -23 24 -28 37 -8 21 -9 22 -16
4z m49 -55 c10 -14 1 -21 -19 -13 -9 3 -13 10 -10 15 7 12 21 11 29 -2z m-64
-32 c-10 -9 -11 -8 -5 6 3 10 9 15 12 12 3 -3 0 -11 -7 -18z m131 -269 c-7 -7
-12 -8 -12 -2 0 14 12 26 19 19 2 -3 -1 -11 -7 -17z"/>
<path d="M1401 374 c0 -11 3 -14 6 -6 3 7 2 16 -1 19 -3 4 -6 -2 -5 -13z"/>
<path d="M1540 381 c0 -5 7 -11 14 -14 10 -4 13 -1 9 9 -6 15 -23 19 -23 5z"/>
<path d="M1122 273 c2 -17 -6 -27 -34 -42 -45 -23 -51 -13 -7 13 30 18 34 36
9 44 -7 3 -10 0 -6 -6 4 -7 -3 -14 -17 -17 -28 -7 -57 -53 -57 -90 0 -104 138
-138 222 -55 23 23 28 37 28 75 0 60 -31 91 -96 97 -41 3 -45 2 -42 -19z m84
-22 c-3 -5 0 -14 8 -20 11 -9 15 -9 19 1 3 7 4 3 4 -8 -1 -24 -22 -22 -31 2
-3 8 -13 14 -21 14 -9 0 -13 5 -10 10 3 6 13 10 21 10 8 0 13 -4 10 -9z"/>
<path d="M2140 249 l0 -34 -25 30 c-25 31 -34 20 -14 -17 14 -27 6 -32 -30
-20 -34 12 -40 6 -15 -12 14 -11 14 -16 -6 -49 -25 -42 -22 -69 11 -110 19
-25 26 -27 95 -27 l74 0 0 105 0 105 -25 0 c-28 0 -29 3 -14 33 9 19 7 18 -10
-3 -11 -14 -21 -23 -22 -20 0 3 -2 13 -4 23 -6 34 -15 31 -15 -4z m48 -114
c-14 -31 -21 -26 -12 9 3 14 10 23 15 21 4 -3 3 -17 -3 -30z"/>
<path d="M736 138 c-4 -16 -12 -28 -17 -28 -5 0 -7 -11 -3 -25 6 -24 -20 -65
-33 -52 -3 4 -14 2 -24 -4 -15 -8 -18 -6 -13 8 5 17 5 17 -6 1 -11 -19 -36
-26 -25 -8 3 5 1 10 -4 10 -6 0 -11 -3 -11 -7 0 -13 -118 -9 -131 5 -16 15
-29 16 -29 2 0 -5 8 -10 18 -10 14 0 14 -2 3 -9 -9 -6 40 -10 127 -10 164 -2
165 -1 160 97 -3 48 -5 53 -12 30z"/>
<path d="M1347 153 c-4 -3 -7 -13 -7 -22 1 -13 3 -13 11 2 11 19 8 33 -4 20z"/>
<path d="M676 75 c-11 -8 -18 -17 -15 -19 2 -3 15 4 29 14 14 11 21 20 15 19
-5 0 -19 -6 -29 -14z"/>
</g>
</svg>
