<?xml version="1.0" standalone="no"?>
<!DOCTYPE svg PUBLIC "-//W3C//DTD SVG 1.0//EN" "http://www.w3.org/TR/2001/REC-SVG-20010904/DTD/svg10.dtd">
<svg xmlns="http://www.w3.org/2000/svg" xmlns:xlink="http://www.w3.org/1999/xlink" id="body_1" width="120" height="90">

<g transform="matrix(2 0 0 2 0 0)">
	<g transform="matrix(0.6 0 0 0.6 0 0)">
		<g transform="matrix(5 0 0 5 0 0)">
			<g transform="matrix(0.3021148 0 0 0.3021148 -0 2.719033)">
				<g>
                    <path d="M37.508 5.145C 39.263 6.69 40.283 7.58 40.571 7.816C 42.771 9.78 43.948997 12.110001 44.106 14.807C 44.079998 14.99 43.922 15.357 43.634 15.907001C 42.195 18.368 40.021 19.847 37.114 20.345001C 38.920998 19.140001 40.204 18.199001 40.963997 17.517002C 43.424995 15.423002 43.517 13.171001 41.237995 10.762002C 39.299995 8.667002 37.231995 7.057002 35.031994 5.931002C 34.665993 5.695002 34.455994 5.460002 34.403996 5.224002C 33.906994 4.019002 33.526997 2.8930018 33.263996 1.8470018C 34.548996 2.7100017 35.962997 3.8100019 37.507996 5.145002L37.507996 5.145002L37.508 5.145z" stroke="none" fill="#DEA190" fill-rule="nonzero" />
                    <path d="M36.723 15.356C 38.711998 15.906 39.891 16.141 40.257 16.063C 40.624 16.063 40.886 15.88 41.043 15.513C 41.329998 15.198999 40.48 14.818999 38.489998 14.374C 37.154 14.007 34.523 13.025 30.594997 11.429C 27.085997 9.91 24.493998 8.077 22.817997 5.93C 23.393997 6.034 23.956997 5.904 24.506996 5.5369997C 24.820995 5.3279996 25.056995 5.1439996 25.213997 4.988L25.213997 4.988L25.606997 4.752C 25.658997 4.648 25.881996 4.4249997 26.274996 4.085L26.274996 4.085L26.745996 3.692C 27.400997 2.7749999 28.224997 2.0559998 29.220997 1.5319998C 29.220997 1.2699999 29.089996 1.1259998 28.827997 1.0999998C 27.308998 1.0209998 25.803997 1.3229998 24.310997 2.0029998L24.310997 2.0029998L22.150997 2.9069998C 21.941998 3.011 21.731997 3.1679997 21.522997 3.3779998C 21.522997 3.4309998 21.470997 3.4569998 21.365997 3.4569998L21.365997 3.4569998L21.365997 3.6139998C 21.365997 3.823 21.339998 3.9539998 21.286997 4.007C 21.024998 4.74 20.461996 5.146 19.598997 5.224C 19.257998 5.328 18.668997 5.433 17.830997 5.538C 17.542997 5.538 17.188997 5.486 16.769997 5.381L16.769997 5.381L16.455997 5.224L7.5009975 8.837C 8.286998 9.36 10.145998 9.256 13.077997 8.523C 16.035997 7.79 17.699997 7.332 18.065998 7.148L18.065998 7.148L19.086998 6.6769996C 23.040998 8.955 26.850998 10.997 30.515999 12.803999C 32.114998 13.719999 34.183 14.570999 36.723 15.355999L36.723 15.355999L36.723 15.356zM33.266 1.8459997C 33.529 2.8929996 33.909 4.019 34.406 5.2229996C 34.457996 5.4589996 34.668 5.694 35.033997 5.9299994C 37.233997 7.0559993 39.302998 8.665999 41.239998 10.761C 43.517998 13.17 43.427 15.421999 40.966 17.515999C 40.206 18.197998 38.923 19.138998 37.116 20.343998L37.116 20.343998L35.191 20.499998C 34.458 20.499998 33.333 20.447998 31.814001 20.343998C 26.787 19.793999 22.179 18.156998 17.989002 15.434998C 15.816002 15.983997 13.590002 16.140997 11.312002 15.905997C 8.458002 15.564998 6.036002 14.609997 4.0460024 13.037997C 2.4220023 11.939997 2.1600022 10.590998 3.2600024 8.993998C 5.6690025 8.338998 7.816003 7.3839974 9.701002 6.1269975C 10.670002 5.5239973 12.228003 5.0669975 14.374002 4.7519975C 16.626003 4.4379973 17.988003 4.0059977 18.459003 3.4559975C 19.061003 2.9329975 20.004004 2.3169975 21.287003 1.6099975C 22.439003 1.0069976 24.338003 0.49699748 26.982002 0.077997565C 29.286003 -0.23500243 31.381002 0.35399756 33.266003 1.8459976z" stroke="none" fill="#B4353B" fill-rule="nonzero" />
                    <path d="M38.49 14.375C 40.479 14.82 41.33 15.2 41.043003 15.514C 40.886 15.881 40.624004 16.064 40.257004 16.064C 39.891003 16.141998 38.712006 15.907 36.723003 15.356999C 34.183002 14.570999 32.115005 13.721 30.517004 12.803999C 26.852005 10.996999 23.042004 8.954999 19.088005 6.676999L19.088005 6.676999L18.067005 7.1479993C 17.700005 7.3319993 16.037004 7.7899995 13.079005 8.522999C 10.146006 9.255999 8.287005 9.359999 7.501005 8.836999L7.501005 8.836999L16.456005 5.223999L16.770004 5.380999C 17.189005 5.484999 17.542004 5.537999 17.831005 5.537999C 18.669004 5.433999 19.258005 5.328999 19.599005 5.223999C 20.463005 5.144999 21.026005 4.739999 21.287004 4.006999C 21.339005 3.953999 21.366005 3.822999 21.366005 3.613999L21.366005 3.613999L21.366005 3.455999C 21.471004 3.455999 21.523005 3.4299989 21.523005 3.376999C 21.732004 3.1679988 21.942005 3.010999 22.151005 2.905999L22.151005 2.905999L24.311005 2.001999C 25.804005 1.3209989 27.309004 1.0199989 28.828005 1.0989989C 29.090004 1.1249989 29.221004 1.2689989 29.221004 1.530999C 28.226004 2.0549989 27.401005 2.774999 26.746004 3.690999L26.746004 3.690999L26.275003 4.083999C 25.882004 4.4239993 25.659004 4.6469994 25.607004 4.750999L25.607004 4.750999L25.214005 4.986999C 25.057005 5.143999 24.821005 5.326999 24.507004 5.5359993C 23.957005 5.9029994 23.394003 6.0339994 22.818005 5.9289994C 24.494005 8.075999 27.086004 9.908999 30.595005 11.4279995C 34.523006 13.025999 37.154007 14.007999 38.490005 14.375L38.490005 14.375L38.49 14.375z" stroke="none" fill="#E0D0BD" fill-rule="nonzero" />
                    <path d="M4.045 13.039C 6.035 14.61 8.457001 15.566 11.311 15.907C 13.589 16.142 15.815001 15.985 17.987999 15.436C 22.176998 18.159 26.785 19.795 31.813 20.345C 30.687 20.292 29.182 20.161 27.296 19.952C 24.521 19.689 22.007 19.389 19.755 19.049L19.755 19.049L12.763999 17.831C 10.407999 17.333 8.207998 16.782999 6.165999 16.181C 3.494999 15.500999 1.5829988 14.021 0.4309988 11.7439995L0.4309988 11.7439995L0.4309988 11.507999C 0.5889988 10.067999 1.5309988 9.23 3.2589989 8.9939995C 2.159999 10.591 2.421999 11.94 4.044999 13.039L4.044999 13.039L4.045 13.039z" stroke="none" fill="#DEA190" fill-rule="nonzero" />
                    <path d="M31.813 20.345C 33.332 20.449 34.457 20.501 35.19 20.501L35.19 20.501L37.114998 20.345C 40.020996 19.847 42.195 18.368 43.635 15.907C 43.922997 15.356999 44.079998 14.99 44.107 14.806999C 44.394997 17.032999 44.211 19.363998 43.557 21.798C 42.929 23.971 41.541 25.333 39.393997 25.883C 37.142 26.406 34.877 26.629 32.599 26.55C 30.845 26.498 28.279 26.472 24.901 26.472C 22.491999 26.629 20.043999 26.485 17.556 26.04C 15.068 25.62 12.476 24.927 9.78 23.958L9.78 23.958L2.2779999 20.974C 1.6499999 20.685001 1.1919999 20.188002 0.9029999 19.481C -0.14400017 17.02 -0.30200016 14.441001 0.43099988 11.744001C 1.5829998 14.021002 3.495 15.501001 6.166 16.181002C 8.208 16.784002 10.408 17.333002 12.764 17.831001L12.764 17.831001L19.755001 19.049002C 22.007002 19.389002 24.521 19.690002 27.296001 19.952002C 29.182001 20.161001 30.687002 20.292002 31.813002 20.345001L31.813002 20.345001L31.813 20.345z" stroke="none" fill="#C49681" fill-rule="nonzero" />
				</g>
			</g>
		</g>
	</g>
</g>
</svg>