<?xml version="1.0" standalone="no"?>
<!DOCTYPE svg PUBLIC "-//W3C//DTD SVG 20010904//EN"
 "http://www.w3.org/TR/2001/REC-SVG-20010904/DTD/svg10.dtd">
<svg version="1.0" xmlns="http://www.w3.org/2000/svg"
 width="512.000000pt" height="512.000000pt" viewBox="0 0 512.000000 512.000000"
 preserveAspectRatio="xMidYMid meet">

<g transform="translate(0.000000,512.000000) scale(0.100000,-0.100000)"
fill="#000000" stroke="none">
<path d="M4205 4876 c-35 -15 -85 -70 -85 -92 0 -8 -31 -45 -68 -82 -38 -37
-78 -80 -89 -96 l-20 -30 -56 18 c-44 14 -63 15 -94 7 -77 -21 -124 -103 -104
-179 13 -46 49 -80 118 -111 42 -19 52 -29 55 -52 3 -16 3 -29 0 -29 -2 0 -44
25 -93 55 -237 147 -487 247 -751 299 -282 57 -531 60 -828 10 -100 -17 -130
-33 -130 -69 0 -12 27 -142 60 -290 33 -148 60 -272 60 -277 0 -4 -33 -8 -74
-8 -91 0 -215 -23 -309 -57 -466 -167 -754 -584 -746 -1078 2 -98 -3 -141 -24
-235 -67 -296 -60 -624 19 -920 90 -337 272 -643 530 -890 688 -659 1752 -719
2509 -141 169 129 368 352 483 543 273 452 345 1033 192 1546 -28 96 -29 104
-14 127 15 23 14 31 -15 135 -38 135 -92 282 -137 372 -19 37 -34 83 -34 101
0 150 -87 308 -219 398 -28 19 -51 39 -51 45 0 20 79 92 128 116 39 19 62 23
132 22 47 0 106 -4 131 -8 54 -10 92 6 133 54 21 25 26 42 26 83 0 78 -33 121
-113 147 -33 10 -38 15 -32 34 40 137 43 282 8 355 -44 89 -153 108 -229 39
-21 -19 -21 -19 -52 29 -70 109 -139 143 -217 109z m117 -155 c49 -70 78 -150
85 -233 6 -73 -7 -105 -66 -162 l-31 -29 11 34 c6 19 11 70 11 114 0 93 -23
165 -77 241 -38 54 -41 64 -23 82 23 23 52 8 90 -47z m291 -91 c13 -48 2 -184
-18 -242 -17 -47 -18 -48 -60 -48 l-43 0 25 62 c21 51 25 78 25 157 0 52 2 99
5 104 3 4 17 7 31 5 20 -2 28 -11 35 -38z m-443 -12 l19 -32 -32 -35 c-18 -20
-39 -46 -47 -59 l-15 -22 -30 24 c-29 23 -29 24 -11 50 19 30 86 106 92 106 3
0 13 -14 24 -32z m-1238 -127 c139 -24 267 -59 398 -108 240 -89 565 -289 585
-359 5 -20 1 -22 -52 -29 -85 -10 -142 -25 -196 -52 l-48 -24 -72 45 c-339
211 -768 309 -1159 264 -168 -19 -147 -32 -181 116 -23 102 -27 130 -16 136 7
5 49 13 93 19 45 6 95 13 111 15 82 12 425 -3 537 -23z m966 -18 c82 -40 185
-141 223 -220 l32 -64 -28 -29 -29 -30 -33 70 c-41 90 -117 166 -207 209 -67
31 -81 52 -54 79 18 18 33 15 96 -15z m318 -109 c-7 -33 -8 -34 -21 -18 -11
15 -10 22 4 40 21 29 25 23 17 -22z m479 -158 c42 -18 54 -41 32 -63 -14 -14
-23 -14 -76 -3 -201 42 -395 -51 -479 -231 -29 -63 -43 -75 -73 -59 -27 15
-24 32 18 113 67 127 189 221 326 253 74 16 200 11 252 -10z m-749 -322 c14
-4 24 -19 32 -49 26 -99 152 -136 232 -69 l30 26 50 -37 c59 -43 103 -97 131
-160 22 -49 36 -172 21 -192 -6 -10 -36 -4 -126 27 -125 42 -144 42 -166 0
-23 -44 10 -69 150 -115 47 -15 89 -31 93 -35 10 -9 -54 -170 -68 -170 -5 0
-58 16 -118 36 -102 34 -109 35 -132 20 -30 -20 -34 -65 -7 -88 9 -9 61 -30
115 -48 53 -17 97 -34 97 -36 0 -18 -75 -164 -85 -164 -6 0 -51 13 -100 30
-49 16 -98 30 -109 30 -45 0 -72 -57 -43 -92 6 -8 56 -30 110 -48 56 -19 96
-38 93 -44 -38 -91 -71 -156 -81 -156 -6 0 -56 15 -111 34 -109 36 -136 35
-155 -8 -21 -44 6 -67 120 -104 87 -29 100 -36 92 -50 -5 -9 -23 -47 -40 -84
-17 -38 -35 -68 -39 -68 -28 0 -112 38 -170 77 -93 63 -248 136 -370 175 -62
20 -101 37 -98 44 2 6 8 32 11 58 6 38 13 50 35 61 16 8 31 23 35 34 6 21 -9
67 -24 72 -6 3 -2 40 11 101 20 95 21 97 42 83 48 -34 106 -9 106 45 0 37 -37
64 -80 58 -24 -4 -29 -1 -25 11 2 9 11 48 19 88 20 94 90 371 115 449 42 138
145 231 281 254 58 10 100 11 126 4z m-1796 -158 l0 -113 -77 -5 c-168 -12
-328 -90 -463 -227 -127 -128 -202 -287 -217 -458 l-6 -73 -113 0 c-133 0
-123 -14 -99 140 55 362 294 659 635 786 94 36 214 62 293 63 l47 1 0 -114z
m195 -256 c255 -79 434 -300 460 -566 8 -76 -5 -180 -31 -262 -18 -55 -16 -53
-114 -67 -238 -34 -519 -156 -699 -303 l-43 -36 -62 32 c-126 65 -223 166
-286 297 -50 106 -64 169 -63 295 0 88 5 119 29 190 72 214 260 387 474 435
89 20 244 13 335 -15z m2224 -337 c16 -43 38 -110 49 -150 l20 -72 -56 -12
c-32 -6 -94 -19 -139 -29 -80 -17 -83 -17 -83 0 0 10 34 97 75 193 41 97 75
182 75 189 1 20 27 -33 59 -119z m100 -494 c50 -188 64 -317 58 -529 -5 -212
-26 -334 -87 -520 -175 -535 -599 -965 -1133 -1149 -1052 -363 -2168 282
-2389 1380 -19 97 -23 146 -23 324 0 116 4 237 8 270 l9 59 28 -65 c61 -144
174 -299 290 -397 60 -51 167 -126 192 -134 6 -2 -3 -41 -25 -98 -51 -136 -69
-235 -69 -375 1 -255 91 -433 276 -544 134 -80 357 -132 647 -150 213 -14 745
-14 941 0 612 42 870 223 904 634 11 139 -24 335 -85 470 l-29 64 15 88 c19
107 12 365 -11 460 l-15 62 55 115 c41 86 62 117 77 121 12 3 87 20 167 38
l145 34 12 -22 c6 -12 25 -73 42 -136z m-1429 -192 c398 -94 711 -331 861
-651 135 -289 112 -616 -53 -773 -69 -65 -123 -95 -233 -132 -189 -62 -399
-81 -906 -81 -501 0 -716 19 -904 81 -191 64 -297 161 -346 320 -55 178 -22
433 83 629 170 319 503 546 908 620 154 29 441 22 590 -13z m858 -287 l-3
-133 -48 56 -47 56 42 85 c23 47 46 82 50 78 5 -5 7 -69 6 -142z"/>
<path d="M3606 3628 c-21 -30 -20 -44 4 -68 22 -22 79 -27 98 -8 18 18 14 63
-6 81 -27 25 -78 22 -96 -5z"/>
<path d="M3767 3582 c-34 -37 -13 -83 45 -97 19 -5 32 -1 47 14 28 28 26 55
-5 80 -33 26 -66 27 -87 3z"/>
<path d="M3947 3525 c-45 -45 -2 -105 75 -105 41 0 58 15 58 52 0 49 -98 89
-133 53z"/>
<path d="M3515 3346 c-30 -30 -32 -49 -5 -76 22 -22 79 -27 98 -8 25 25 5 98
-28 98 -5 0 -15 3 -24 6 -9 3 -26 -5 -41 -20z"/>
<path d="M3667 3292 c-10 -10 -17 -28 -17 -40 0 -24 44 -62 71 -62 25 0 59 35
59 60 0 50 -79 79 -113 42z"/>
<path d="M3847 3235 c-21 -21 -22 -59 -2 -79 27 -27 86 -38 112 -21 29 19 31
65 4 89 -29 26 -93 32 -114 11z"/>
<path d="M3551 3004 c-32 -41 -18 -78 37 -93 25 -8 36 -6 57 11 46 36 24 91
-42 104 -25 5 -34 1 -52 -22z"/>
<path d="M3731 2951 c-48 -48 -1 -111 85 -111 57 0 74 83 23 107 -53 25 -85
27 -108 4z"/>
<path d="M3417 2733 c-39 -43 -7 -103 55 -103 34 0 58 24 58 59 0 34 -17 50
-62 57 -25 4 -38 1 -51 -13z"/>
<path d="M3596 2674 c-24 -24 -20 -71 7 -89 54 -35 118 -28 132 15 9 28 -12
60 -50 76 -44 18 -70 18 -89 -2z"/>
<path d="M2790 2194 c-241 -47 -427 -177 -520 -367 -127 -259 -43 -526 205
-648 140 -69 212 -82 430 -83 201 -1 265 9 385 56 247 97 363 310 305 557 -26
110 -71 187 -165 281 -68 69 -102 94 -170 127 -47 23 -112 49 -145 58 -59 16
-274 28 -325 19z m172 -105 c273 -25 484 -191 528 -417 35 -174 -39 -323 -197
-397 -114 -55 -193 -69 -383 -69 -193 0 -271 15 -387 71 -156 76 -228 225
-190 398 38 176 162 320 338 391 64 26 155 45 179 37 8 -3 59 -9 112 -14z"/>
<path d="M556 4128 c-13 -19 -16 -58 -16 -225 l0 -203 -32 0 c-18 0 -50 -4
-70 -9 l-38 -9 0 207 c0 156 -3 212 -13 225 -17 23 -66 24 -82 2 -9 -11 -14
-152 -19 -486 l-7 -471 22 -46 c27 -56 92 -100 161 -109 l48 -7 0 -206 0 -206
-47 -35 c-26 -19 -61 -55 -78 -78 l-30 -44 -3 -956 c-2 -634 1 -969 7 -992 14
-48 73 -116 125 -142 60 -32 164 -31 229 1 57 28 111 95 126 158 7 28 11 346
11 956 0 991 1 969 -55 1042 -14 19 -44 45 -65 57 l-40 23 0 210 0 211 58 12
c72 15 133 64 157 125 13 36 15 72 11 227 -3 102 -8 312 -11 468 l-6 282 -25
16 c-22 15 -26 15 -49 0 l-25 -16 0 -216 c0 -198 -1 -216 -17 -210 -9 4 -43 9
-75 13 l-58 6 0 204 c0 122 -4 212 -10 224 -15 27 -64 25 -84 -3z m44 -2503
c0 -563 -3 -855 -10 -855 -5 0 -19 -9 -30 -20 -36 -36 -17 -140 26 -140 11 0
14 -19 14 -96 l0 -96 -32 6 c-44 9 -74 31 -95 69 -17 30 -18 91 -18 957 0 872
1 927 18 958 20 37 71 72 105 72 l22 0 0 -855z"/>
</g>
</svg>
